<svg width="184" height="165" viewBox="0 0 184 165" fill="none" xmlns="http://www.w3.org/2000/svg">
<g clip-path="url(#clip0_41_119)">
<path d="M161 34.375C152.49 31.9688 143.137 30.9375 134.167 30.9375C119.217 30.9375 103.117 33.6875 92.0001 41.25C80.8834 33.6875 64.7834 30.9375 49.8334 30.9375C34.8834 30.9375 18.7834 33.6875 7.66675 41.25V141.969C7.66675 143.687 9.58341 145.406 11.5001 145.406C12.2667 145.406 12.6501 145.063 13.4167 145.063C23.7667 140.594 38.7167 137.5 49.8334 137.5C64.7834 137.5 80.8834 140.25 92.0001 147.812C102.35 141.969 121.133 137.5 134.167 137.5C146.817 137.5 159.85 139.562 170.583 144.719C171.35 145.062 171.733 145.063 172.5 145.063C174.417 145.063 176.333 143.344 176.333 141.625V41.25C171.733 38.1563 166.75 36.0938 161 34.375ZM161 127.188C152.567 124.781 143.367 123.75 134.167 123.75C121.133 123.75 102.35 128.219 92.0001 134.062V55C102.35 49.1562 121.133 44.6875 134.167 44.6875C143.367 44.6875 152.567 45.7188 161 48.125V127.188Z" fill="#323232"/>
<path d="M134.167 72.1875C140.913 72.1875 147.43 72.8063 153.333 73.975V63.525C147.277 62.4937 140.76 61.875 134.167 61.875C121.133 61.875 109.327 63.8687 99.6667 67.5813V78.9938C108.33 74.5938 120.367 72.1875 134.167 72.1875Z" fill="#323232"/>
<path d="M99.6667 85.8698V97.2823C108.33 92.8823 120.367 90.4761 134.167 90.4761C140.913 90.4761 147.43 91.0948 153.333 92.2636V81.8136C147.277 80.7823 140.76 80.1636 134.167 80.1636C121.133 80.1636 109.327 82.2261 99.6667 85.8698Z" fill="#323232"/>
<path d="M134.167 98.519C121.133 98.519 109.327 100.513 99.6667 104.225V115.638C108.33 111.238 120.367 108.832 134.167 108.832C140.913 108.832 147.43 109.45 153.333 110.619V100.169C147.277 99.069 140.76 98.519 134.167 98.519Z" fill="#323232"/>
</g>
<defs>
<clipPath id="clip0_41_119">
<rect width="184" height="165" fill="white"/>
</clipPath>
</defs>
</svg>
