<svg width="668" height="512" viewBox="0 0 668 512" fill="none" xmlns="http://www.w3.org/2000/svg">
<g clip-path="url(#clip0_303:279)">
<path d="M70.6073 367.091C102.94 367.091 129.152 361.771 129.152 355.209C129.152 348.646 102.94 343.326 70.6073 343.326C38.2742 343.326 12.063 348.646 12.063 355.209C12.063 361.771 38.2742 367.091 70.6073 367.091Z" fill="white" stroke="#6562CF" stroke-width="5" stroke-miterlimit="10"/>
<path d="M67.144 367.095V450.588C67.1424 455.147 65.9438 459.615 63.6837 463.486C61.4236 467.357 58.1923 470.477 54.3553 472.492L33.5271 483.438C31.39 484.562 29.5904 486.301 28.3321 488.458C27.0738 490.615 26.407 493.105 26.407 495.645" stroke="#6562CF" stroke-width="5" stroke-miterlimit="10"/>
<path d="M26.5971 511.075C30.5943 511.075 33.8347 507.621 33.8347 503.36C33.8347 499.099 30.5943 495.645 26.5971 495.645C22.5998 495.645 19.3594 499.099 19.3594 503.36C19.3594 507.621 22.5998 511.075 26.5971 511.075Z" stroke="#FFB000" stroke-width="5" stroke-miterlimit="10"/>
<path d="M53.996 511.075C57.9932 511.075 61.2336 507.621 61.2336 503.36C61.2336 499.099 57.9932 495.645 53.996 495.645C49.9987 495.645 46.7583 499.099 46.7583 503.36C46.7583 507.621 49.9987 511.075 53.996 511.075Z" stroke="#FFB000" stroke-width="5" stroke-miterlimit="10"/>
<path d="M67.144 440.784V466.943C67.1439 471.129 65.6883 475.165 63.0585 478.273L58.0848 484.168C55.4534 487.275 53.9965 491.312 53.9958 495.498" stroke="#6562CF" stroke-width="5" stroke-miterlimit="10"/>
<path d="M74.5337 367.095V450.588C74.5349 455.148 75.7333 459.616 77.9935 463.487C80.2536 467.358 83.4851 470.477 87.3223 472.492L108.147 483.438C110.285 484.561 112.086 486.3 113.345 488.457C114.604 490.614 115.271 493.104 115.271 495.645" stroke="#6562CF" stroke-width="5" stroke-miterlimit="10"/>
<path d="M115.084 511.075C119.081 511.075 122.322 507.621 122.322 503.36C122.322 499.099 119.081 495.645 115.084 495.645C111.087 495.645 107.846 499.099 107.846 503.36C107.846 507.621 111.087 511.075 115.084 511.075Z" stroke="#FFB000" stroke-width="5" stroke-miterlimit="10"/>
<path d="M87.6818 511.075C91.679 511.075 94.9195 507.621 94.9195 503.36C94.9195 499.099 91.679 495.645 87.6818 495.645C83.6845 495.645 80.4441 499.099 80.4441 503.36C80.4441 507.621 83.6845 511.075 87.6818 511.075Z" stroke="#FFB000" stroke-width="5" stroke-miterlimit="10"/>
<path d="M74.5337 440.784V466.943C74.5337 471.129 75.9894 475.165 78.6191 478.273L83.5963 484.168C86.2267 487.275 87.6824 491.312 87.6818 495.498" stroke="#6562CF" stroke-width="5" stroke-miterlimit="10"/>
<path d="M124.451 458.126C124.451 458.126 124.859 472.65 116.646 478.733C108.904 484.466 108.617 489.079 108.617 489.079C108.617 489.079 121.52 502.435 124.696 503.817C127.872 505.198 139.441 509.454 145.434 509.454C145.434 509.454 149.489 506.304 140.205 497.664C127.61 485.914 141.902 464.806 141.902 464.806C141.902 464.806 128.775 460.617 124.451 458.126Z" fill="#FFC0B7"/>
<path d="M101.359 286.49C101.359 286.49 166.902 294.728 193.053 323.798C207.183 339.509 151.576 434.21 148.967 466.018C148.967 466.018 128.792 463.188 115.716 452.434C115.716 452.434 118.136 364.401 147.861 348.086C147.861 348.086 91.2902 352.876 67.0816 339.723C42.8731 326.569 67.0816 290.613 67.0816 290.613C67.0816 290.613 88.1379 294.99 101.359 286.49Z" fill="#3C4564"/>
<path d="M118.72 475.417C118.72 475.417 107.843 479.982 107.58 488.342C107.58 488.342 118.934 500.74 124.696 503.817C133.728 508.662 146.126 510.191 146.126 510.191C146.126 510.191 150.619 504.296 143.558 498.581C136.496 492.866 135.134 482.738 135.134 482.738C135.134 482.738 134.357 489.908 128.073 491.212C122.446 492.391 120.628 489.37 120.628 489.37C120.628 489.37 122.322 476.434 118.72 475.417Z" fill="#5654B7"/>
<path d="M28.2905 291.836C28.2905 291.836 16.3937 327.73 20.6865 337.751C28.6777 356.468 92.1923 362.047 139.268 352.883C139.268 352.883 122.826 414.602 142.255 465.182C142.255 465.182 155.334 467.588 173.639 464.813C173.639 464.813 173.265 403.876 181.485 338.96C183.119 325.913 112.706 295.285 81.7056 291.825C50.7052 288.365 28.2905 291.836 28.2905 291.836Z" fill="#3F4D79"/>
<path d="M146.914 465.793C146.914 465.793 150.464 479.912 150.464 484.116C150.464 492.679 144.297 503.032 145.417 510.202H201.255C201.255 510.202 197.875 501.415 184.274 498.231C168.955 494.646 166.145 484.164 166.529 465.808C166.529 465.793 156.436 466.619 146.914 465.793Z" fill="#FFCFC9"/>
<path d="M149.496 490.877C149.496 490.877 142.991 500.641 145.417 510.202H202.126C202.126 510.202 201.998 501.654 194.093 500.622C186.189 499.591 173.355 492.66 173.355 492.66C173.355 492.66 174.306 502.818 159.733 504.012C159.733 504.027 160.297 491.264 149.496 490.877Z" fill="#6562CF"/>
<path d="M109.675 143.467C101.691 147.69 96.8585 149.06 99.3851 175.997C101.912 202.934 120.282 234.407 120.282 234.407L144.173 209.301C144.173 209.301 128.073 159.377 124.7 153.85C118.129 143.125 112.782 141.824 109.675 143.467Z" fill="#6562CF"/>
<path d="M150.699 217.399C150.699 217.399 145.804 205.609 143.392 205.488C140.979 205.366 123.898 218.892 121.499 230.859C120.728 234.72 117.144 241.175 137.782 243.986C144.18 244.856 150.699 217.399 150.699 217.399Z" fill="#8382D8"/>
<path d="M227.085 238.154C227.085 238.154 225.557 239.215 221.046 238.072C219.595 237.704 217.545 234.985 215.385 233.507C213.636 232.31 210.2 232.516 206.505 232.984C204.411 233.242 202.434 230.291 201.11 228.633C187.976 232.686 151.383 244.034 136.842 242.748C133.151 242.424 143.717 217.631 150.114 216.014C154.953 214.794 183.431 215.881 201.483 218.339C207.909 219.326 214.252 220.854 220.452 222.907C222.823 224.499 227.085 238.154 227.085 238.154Z" fill="#FFC0B7"/>
<path d="M101.359 286.49C101.359 286.49 95.0233 292.087 81.7093 291.814V291.792C80.2092 264.696 77.0846 213.796 73.8253 194.891C67.2962 157.055 49.4957 124.43 49.2192 123.925L83.3407 125.848C83.3407 125.848 101.024 139.175 104.884 194.924C108.745 250.673 101.359 286.49 101.359 286.49Z" fill="white"/>
<path d="M83.3372 125.848C86.5723 127.211 107.715 138.626 114.445 142.874C121.174 147.122 125.242 180.36 121.703 207.131C115.727 252.265 116.225 269.917 122.145 290.359C122.145 290.359 108.648 287.348 101.366 286.726C101.366 286.726 97.657 255.776 102.748 224.389C113.062 160.721 83.3372 125.848 83.3372 125.848Z" fill="#6562CF"/>
<path d="M49.2123 123.932C49.2123 123.932 15.4779 135.826 4.37601 148.986C-0.11729 154.296 25.5498 219.879 23.3067 238.994C21.0635 258.109 10.6044 300.314 10.6044 300.314C10.6044 300.314 26.6144 322.616 82.6286 309.333C82.6286 309.333 78.3531 221.183 73.8183 194.898C67.2408 156.772 49.2123 123.932 49.2123 123.932Z" fill="#6562CF"/>
<path d="M120.545 184.825C119 196.479 117.535 223.88 118.423 232.826" stroke="#8382D8" stroke-width="6" stroke-miterlimit="10" stroke-linecap="round"/>
<path d="M11.7968 142.377C4.37593 148.972 -2.09788 148.441 0.643035 177.648C3.38395 206.854 23.3066 240.98 23.3066 240.98L49.2122 213.755C49.2122 213.755 35.8463 160.85 33.2713 154.281C29.4831 144.595 19.2177 135.796 11.7968 142.377Z" fill="#6562CF"/>
<path d="M49.5718 213.755C49.5718 213.755 41.3352 171.266 35.7808 162.324" stroke="#8382D8" stroke-width="6" stroke-miterlimit="10" stroke-linecap="round"/>
<path d="M59.2599 219.345C59.2599 219.345 50.9646 209.736 48.3412 209.621C45.7178 209.507 27.9485 223.073 24.1465 236.96C23.0231 241.072 16.8189 248.039 41.3489 254.748C54.9913 258.488 59.2599 219.345 59.2599 219.345Z" fill="#8382D8"/>
<path d="M164.898 237.118C164.898 237.118 163.626 239.012 161.769 237.711C160.612 236.901 158.514 234.764 156.931 233.706C158.347 236.091 159.65 238.55 160.833 241.075C158.784 242.041 156.581 242.579 154.342 242.66C152.489 242.744 149.644 239.344 146.793 237.811C144.488 236.577 140.278 237.31 135.764 238.4C131.25 239.491 126.386 232.369 126.386 232.369V232.328C117.822 235.405 62.8096 251.856 42.334 250.706C37.7405 250.449 49.983 221.312 57.867 219.05C64.524 217.137 108.102 217.627 129.145 220.811C137.264 221.787 149.62 225.328 151.936 225.888C154.048 226.194 158.911 229.886 160.262 231.079C161.673 232.328 164.898 237.118 164.898 237.118Z" fill="#FFCFC9"/>
<path d="M158.486 241.146C158.486 241.146 152.762 232.388 151.186 231.787C148.421 230.726 144.795 229.322 144.795 229.322" stroke="#F7B3AF" stroke-width="4" stroke-miterlimit="10" stroke-linecap="round"/>
<path d="M155.745 241.971C155.745 241.971 150.561 234.668 149.005 234.067C146.24 233.006 142.611 231.603 142.611 231.603" stroke="#F7B3AF" stroke-width="4" stroke-miterlimit="10" stroke-linecap="round"/>
<path d="M83.9177 121.091L76.1029 144.517C76.1029 144.517 54.853 147.012 49.2986 123.847L56.7851 101.004L83.9177 121.091Z" fill="#FFCFC9"/>
<path d="M83.9211 121.092L80.3886 131.674C75.688 133.954 69.6738 133.884 63.798 125.561C58.4717 118.001 57.3242 106.907 56.3184 102.791L56.7711 101.019L83.9211 121.092Z" fill="#FFC0B7"/>
<path d="M56.7851 101.019C56.7851 101.019 63.3038 116.976 71.2708 119.551C78.8748 122.005 88.176 121.353 89.1403 119.551C90.1046 117.75 97.9956 96.4793 95.901 82.4268C94.4528 72.7036 90.5885 71.3735 83.3439 72.1288C76.0994 72.8841 73.552 73.7352 64.6967 70.8429C62.2116 70.0323 66.4802 84.8954 58.9972 90.5584C58.9972 90.5584 53.384 88.5467 52.1742 90.6063C50.9645 92.6659 56.7851 101.019 56.7851 101.019Z" fill="#FFCFC9"/>
<path d="M55.7689 103.963C55.7689 103.963 36.6378 91.5017 37.5641 74.6343C37.9685 67.4128 52.3159 47.9958 61.1055 47.1926C69.8951 46.3894 83.458 51.2086 87.7197 55.2247C91.9814 59.2407 97.8158 63.5589 96.295 78.9377C96.209 79.7781 96.0208 80.603 95.7351 81.3916C94.1659 72.6079 90.3258 71.3846 83.3474 72.1289C76.089 72.9026 73.552 73.7316 64.6829 70.843C62.1978 70.0288 66.4698 84.8955 58.9833 90.5585C58.9833 90.5585 53.3701 88.5468 52.1639 90.6027C50.9576 92.6586 56.7712 101.015 56.7712 101.015L55.7689 103.963Z" fill="#3F4D79"/>
<path d="M54.2964 50.3686C54.2964 50.3686 56.0834 35.4208 46.7892 35.9477C37.4949 36.4746 31.8437 45.8552 30.9693 51.9824C29.8494 59.8561 43.2567 62.1773 43.2567 62.1773L54.2964 50.3686Z" fill="#3F4D79"/>
<path d="M34.1421 62.0557C37.2909 66.0201 43.2566 62.1773 43.2566 62.1773" stroke="#3F4D79" stroke-width="4" stroke-miterlimit="10"/>
<path d="M56.8611 49.7901C56.8611 49.7901 58.9107 33.188 48.2478 33.737C37.5848 34.2859 30.6444 47.8815 32.0857 52.0929C33.527 56.3042 44.183 62.1772 44.183 62.1772L56.8611 49.7901Z" stroke="#3F4D79" stroke-width="4" stroke-miterlimit="10"/>
<path d="M90.5575 72.0551C88.6669 71.2519 86.2163 73.1604 83.344 73.8973C74.0118 76.2922 67.6036 75.0027 64.1438 70.2534" stroke="#3F4D79" stroke-width="4" stroke-miterlimit="10"/>
<path d="M75.0208 100.617C79.0391 100.617 82.2965 97.1446 82.2965 92.8612C82.2965 88.5778 79.0391 85.1055 75.0208 85.1055C71.0026 85.1055 67.7451 88.5778 67.7451 92.8612C67.7451 97.1446 71.0026 100.617 75.0208 100.617Z" stroke="#FFB000" stroke-width="5" stroke-miterlimit="10"/>
<path d="M93.7925 100.617C97.555 100.617 100.605 97.1446 100.605 92.8612C100.605 88.5778 97.555 85.1055 93.7925 85.1055C90.0301 85.1055 86.98 88.5778 86.98 92.8612C86.98 97.1446 90.0301 100.617 93.7925 100.617Z" stroke="#FFB000" stroke-width="5" stroke-miterlimit="10"/>
<path d="M82.2446 92.3271H86.693" stroke="#FFB000" stroke-width="5" stroke-miterlimit="10"/>
<path d="M238.702 511.079L269.809 258.178H275.415L306.523 511.079" stroke="#FFB000" stroke-width="5" stroke-miterlimit="10" stroke-linecap="round"/>
<path d="M293.61 246.819H278.056L275.637 243.179C273.269 239.601 268.886 237.398 264.141 237.398H241.304C236.559 237.398 232.176 239.608 229.809 243.179L227.389 246.819H212.44L218.416 238.809C221.088 235.228 226.02 233.024 231.371 233.024H274.676C280.023 233.024 284.966 235.235 287.634 238.809L293.61 246.819Z" fill="#D1D0FF" stroke="#6562CF" stroke-width="6" stroke-linejoin="round"/>
<path d="M293.897 246.819H287.589L285.169 243.179C282.798 239.601 278.416 237.398 273.674 237.398H241.602C236.86 237.398 232.477 239.608 230.106 243.179L227.686 246.819H212.727L218.703 238.809C221.375 235.228 226.307 233.024 231.661 233.024H274.966C280.313 233.024 285.252 235.235 287.921 238.809L293.897 246.819Z" fill="white" stroke="#6562CF" stroke-width="6" stroke-miterlimit="10"/>
<path d="M302.628 210.461H156.201C152.313 210.461 149.51 206.342 150.588 202.212L172.429 118.707C172.968 116.52 174.167 114.583 175.84 113.193C177.513 111.803 179.568 111.038 181.689 111.014H328.115C332.003 111.014 334.81 115.133 333.728 119.26L311.887 202.768C311.345 204.953 310.146 206.889 308.474 208.278C306.802 209.668 304.748 210.435 302.628 210.461Z" fill="white" stroke="#6562CF" stroke-width="6" stroke-miterlimit="10"/>
<path d="M217.383 185.049L213.688 209.205H226.477L220.819 185.009C220.694 184.467 217.466 184.5 217.383 185.049Z" fill="#E2E2FF"/>
<path d="M269.367 232.77H233.075L224.112 194.379C223.124 190.16 221.845 188.517 218.783 187.588V185.377H249.586C252.071 185.378 254.485 186.264 256.444 187.895C258.402 189.526 259.793 191.808 260.394 194.379L269.367 232.77Z" fill="#D1D0FF" stroke="#6562CF" stroke-width="6" stroke-linejoin="round"/>
<path d="M272.968 232.77H236.676L227.714 194.379C226.476 189.091 224.79 185.377 219.674 185.377H253.201C255.684 185.382 258.094 186.27 260.049 187.901C262.005 189.531 263.394 191.811 263.996 194.379L272.968 232.77Z" fill="white" stroke="#6562CF" stroke-width="6" stroke-miterlimit="10"/>
<path d="M179.096 240.224L130.855 243.175V246.819H179.096V240.224Z" fill="white" stroke="#6562CF" stroke-width="6" stroke-linejoin="round"/>
<path d="M209.264 240.224H179.096V246.679H209.264V240.224Z" fill="#D1D0FF" stroke="#6562CF" stroke-width="6" stroke-linejoin="round"/>
<path d="M78.8715 257.633H300.346V246.819H78.3704L78.8715 257.633Z" fill="white" stroke="#6562CF" stroke-width="6" stroke-linejoin="round"/>
</g>
<g clip-path="url(#clip1_303:279)">
<path d="M533.135 243.796H625.658C629.053 243.796 632.31 245.07 634.712 247.338C637.114 249.606 638.465 252.683 638.468 255.892V255.965H520.324V255.892C520.328 252.683 521.679 249.606 524.081 247.338C526.483 245.07 529.739 243.796 533.135 243.796Z" fill="white" stroke="#6562CF" stroke-width="5" stroke-miterlimit="10"/>
<path d="M545.11 256.515L613.683 380.09" stroke="#6562CF" stroke-width="6" stroke-miterlimit="10" stroke-linecap="round"/>
<path d="M613.683 256.515L545.11 380.09" stroke="#6562CF" stroke-width="6" stroke-miterlimit="10" stroke-linecap="round"/>
<path d="M391.284 378.459C391.284 378.459 411.439 378.459 420.916 378.405C428.887 378.356 444.584 379.904 444.828 376.298C445.322 369.043 440.203 365.012 440.839 360.434C434.534 360.61 428.28 359.318 422.628 356.67C420.572 358.568 409.117 368.794 399.708 369.841C389.329 370.998 391.284 378.459 391.284 378.459Z" fill="#DBDAFF"/>
<path d="M390.963 379.066C390.963 379.066 435.525 379.066 445.001 379.012" stroke="#6562CF" stroke-width="6" stroke-miterlimit="10" stroke-linecap="round"/>
<path d="M416.089 365.58C416.089 365.58 410.334 359.306 408.276 365.149C406.645 369.778 409.728 370.819 410.582 368.874C411.07 367.756 406.086 364.712 404.194 366.831C403.135 368.021 403.305 369.147 403.305 369.147" stroke="#6562CF" stroke-width="4" stroke-miterlimit="10" stroke-linecap="round"/>
<path d="M447.484 232.892C454.709 212.998 552.059 202.082 552.059 202.082L582.872 202.865C584.411 207.673 587.182 239.935 564.622 251.7C540.681 264.185 486.528 247.979 486.528 247.979C486.528 247.979 489.701 310.261 443.408 361.433L413.202 358.398C426.134 310.291 440.496 252.089 447.484 232.892Z" fill="#3C4564"/>
<path d="M465.789 378.46C465.789 378.46 485.943 378.46 495.42 378.405C503.391 378.356 519.088 379.905 519.332 376.298C519.827 369.044 514.708 365.012 515.344 360.435C509.038 360.611 502.784 359.318 497.132 356.671C495.076 358.568 483.621 368.795 474.212 369.842C463.833 370.998 465.789 378.46 465.789 378.46Z" fill="#DBDAFF"/>
<path d="M465.468 379.067C465.468 379.067 510.029 379.067 519.506 379.012" stroke="#6562CF" stroke-width="6" stroke-miterlimit="10" stroke-linecap="round"/>
<path d="M490.593 365.58C490.593 365.58 484.839 359.306 482.78 365.149C481.149 369.778 484.232 370.819 485.086 368.874C485.574 367.756 480.59 364.712 478.698 366.831C477.639 368.021 477.809 369.147 477.809 369.147" stroke="#6562CF" stroke-width="4" stroke-miterlimit="10" stroke-linecap="round"/>
<path d="M488.333 232.707C492.806 219.072 564.622 202.468 564.622 202.468L625.687 203.77C627.222 208.578 633.108 236.893 610.548 248.659C586.607 261.144 524.621 255.501 524.621 255.501C524.621 255.501 547.474 293.982 518.642 361.44L489.588 358.404C494.64 322.637 481.974 252.092 488.333 232.707Z" fill="#424D76"/>
<path d="M555.961 192.869C555.961 192.869 546.452 160.881 538.636 126.58C538.636 126.58 519.281 120.358 508.127 108.592C508.127 108.592 526.028 78.6256 539.805 74.0936C551.664 70.193 568.749 66.4321 568.749 66.4321L607.208 63.7305C607.208 63.7305 635.35 70.9762 645.366 78.4617C657.007 87.1584 662.797 115.674 662.797 115.674C662.797 115.674 649.29 116.612 629.55 127.707L624.913 192.869C626.245 201.214 629.441 212.394 629.441 212.394C629.441 212.394 590.689 221.005 540.219 202.802C540.219 202.802 557.827 199.314 555.961 192.869Z" fill="#DBDAFF"/>
<path d="M508.179 108.81L495.475 126.981C495.475 126.981 460.619 83.6705 456.922 78.6802L445.454 82.2924C445.454 82.2924 472.616 161.282 494.669 161.282C512.203 161.282 538.238 126.58 538.238 126.58C538.238 126.58 515.225 116.366 508.179 108.81Z" fill="#E49647"/>
<path d="M456.922 78.7165C456.922 78.7165 456.88 67.6248 454.276 63.9306C451.672 60.2364 444.391 46.9318 441.694 48.313C440.451 48.9505 444.998 60.03 444.998 60.03C444.998 60.03 442.49 58.8978 440.673 60.7464C438.855 62.595 438.643 61.0499 436.144 62.082C433.646 63.1141 434.622 65.0143 431.581 65.2207C429.391 65.3664 429.555 67.8798 430.939 70.3811C432.785 73.7687 442.866 83.2516 446.003 82.2923C449.141 81.3331 456.922 78.7165 456.922 78.7165Z" fill="#E49647"/>
<path d="M431.379 69.6981C431.723 70.3962 434.112 75.5262 437.224 74.4334C440.335 73.3407 434.638 65.6578 434.638 65.6578C434.638 65.6578 439.272 73.7474 442.31 72.518C445.348 71.2887 439.632 63.5542 439.632 63.5542" stroke="#CB884B" stroke-width="3" stroke-miterlimit="10"/>
<path d="M454.045 64.9081C453.011 63.2537 451.852 62.4584 448.81 63.1414C445.769 63.8244 441.103 65.3543 441.103 65.3543C441.103 65.3543 441.691 69.1547 445.445 68.5476C447.979 68.1378 447.979 68.1378 448.049 68.6842C448.12 69.2306 448.454 72.6546 449.687 74.8432" stroke="#CB884B" stroke-width="3" stroke-miterlimit="10"/>
<path d="M503.233 137.951H554.188C561.205 137.951 567.824 142.504 568.961 148.087L576.37 184.173C577.516 189.77 584.138 194.308 591.142 194.308H540.203C533.186 194.308 526.571 189.755 525.431 184.173L518.092 148.466C517.1 143.609 512.094 139.967 506.194 138.95L503.362 138.57L503.233 137.951Z" fill="white" stroke="#6562CF" stroke-width="5" stroke-miterlimit="10"/>
<path d="M665.119 171.703C657.605 181.705 604.199 190.365 592.491 192.147C591.949 192.324 591.389 192.448 590.821 192.517C588.319 192.821 575.345 193.558 572.763 192.775C569.722 191.849 563.954 186.65 563.643 185.845C563.331 185.041 561.787 178.281 561.787 178.281C561.787 178.281 565.82 177.719 568.036 181.793C570.03 185.466 574.359 185.068 577.028 184.85C578.139 184.758 580.268 183.195 579.918 181.605C579.568 180.014 577.506 180.557 576.418 179.871L575.634 176.211L580.586 176.159C581.797 176.144 588.48 178.627 592.619 182.175C603.994 176.007 629.849 162.308 642.958 157.995L629.534 127.694C629.534 127.694 641.802 117.732 662.611 115.552C662.647 115.552 672.827 161.44 665.119 171.703Z" fill="#E49647"/>
<path d="M595.821 37.5312C595.821 37.5312 593.005 56.2967 607.828 63.9401C607.828 63.9401 589.662 76.9441 575.586 77.7758C561.511 78.6076 567.558 67.1789 567.558 67.1789C567.558 67.1789 571.023 60.7164 569.928 44.8468L595.821 37.5312Z" fill="#E49647"/>
<path d="M569.918 44.8501L595.243 37.6924C594.906 38.8884 593.438 55.4925 573.062 60.58C571.845 60.8836 570.608 60.5405 569.481 60.0852C570.034 56.5216 570.38 51.516 569.918 44.8501Z" fill="#D48845"/>
<path d="M595.657 37.6405C595.657 37.6405 589.556 50.7903 573.065 52.6905C558.36 54.3873 551.131 15.6302 572.843 11.9238C596.704 7.85322 593.865 31.9975 593.865 31.9975C593.865 31.9975 597.366 29.5691 599.003 31.4906C600.641 33.4121 595.657 37.6405 595.657 37.6405Z" fill="#E49647"/>
<path d="M595.953 35.8908L593.997 32.2299C589.427 30.7942 589.983 24.8901 591.64 21.6907C590.558 22.2978 588.496 22.8503 584.912 22.5619C582.921 22.401 586.762 19.1955 585.178 18.9436C583.595 18.6917 580.294 22.0641 575.409 22.4375C570.525 22.8108 575.779 19.2988 576.081 17.4501C576.344 15.8292 573.104 17.9631 571.411 18.9679C565.123 22.741 559.812 21.8273 559.365 27.4673C559.365 27.4673 554.323 20.0485 554.323 16.5395C554.323 7.67888 571.321 -0.656581 578.357 0.0112275C584.527 0.606184 589.106 5.61778 590.137 6.84412C590.651 6.12175 591.364 5.54558 592.199 5.17764C593.775 4.41269 595.352 4.33681 595.731 5.01068C596.11 5.68456 595.114 6.85323 593.538 7.61817C593.441 7.66371 593.348 7.70924 593.252 7.7487C595.632 8.38919 599.007 9.57 601.479 11.625C609.736 18.4427 595.953 35.8908 595.953 35.8908Z" fill="#FFB000"/>
<path d="M593.865 32.3675C593.865 32.3675 596.547 29.593 599.003 31.4842C601.46 33.3753 594.867 38.3869 594.867 38.3869L593.865 32.3675Z" fill="#E49647"/>
</g>
<defs>
<clipPath id="clip0_303:279">
<rect width="335" height="479" fill="white" transform="translate(0 33)"/>
</clipPath>
<clipPath id="clip1_303:279">
<rect width="278" height="381" fill="white" transform="translate(390)"/>
</clipPath>
</defs>
</svg>
