<svg width="23" height="24" viewBox="0 0 23 24" fill="none" xmlns="http://www.w3.org/2000/svg">
<path d="M11.5 0C5.175 0 0 4.69189 0 10.4264C0 13.1634 1.15 15.77 3.22 17.5946C3.22 18.3766 2.76 20.4619 0 23.4595C0 23.4595 4.025 23.4595 7.475 20.2012C8.74 20.5922 10.12 20.8529 11.5 20.8529C17.825 20.8529 23 16.161 23 10.4264C23 4.69189 17.825 0 11.5 0ZM12.65 15.6396H10.35V13.033H12.65V15.6396ZM14.72 9.12312C14.375 9.64444 13.915 9.9051 13.455 10.1658C13.11 10.4264 12.995 10.5568 12.88 10.8174C12.65 11.0781 12.65 11.3387 12.65 11.7297H10.35C10.35 11.0781 10.465 10.6871 10.695 10.2961C10.925 10.0354 11.385 9.64444 11.96 9.25345C12.305 9.12312 12.535 8.86246 12.65 8.6018C12.765 8.34114 12.88 7.95015 12.88 7.68949C12.88 7.2985 12.765 7.03784 12.535 6.77718C12.305 6.51652 11.96 6.38619 11.615 6.38619C11.27 6.38619 11.04 6.51652 10.81 6.64685C10.58 6.77718 10.465 7.03784 10.465 7.42883H8.165C8.28 6.51652 8.625 5.73453 9.2 5.21321C9.775 4.69189 10.58 4.56156 11.615 4.56156C12.65 4.56156 13.57 4.82222 14.145 5.34354C14.72 5.86486 15.065 6.64685 15.065 7.55916C15.18 8.08048 15.065 8.6018 14.72 9.12312Z" fill="black"/>
</svg>
